<?xml version="1.0" standalone="no"?><!DOCTYPE svg PUBLIC "-//W3C//DTD SVG 1.1//EN" "http://www.w3.org/Graphics/SVG/1.1/DTD/svg11.dtd" [<!ENTITY nbsp " ">]><svg data-noselect="" 
  viewBox="215.33313579102003 102.5029296875 400 392.3514289856" 
  width="400" 
  height="392.3514289856" 
  ref="svg_canvas" 
  preserveAspectRatio="none" 
  version="1.1" xmlns="http://www.w3.org/2000/svg" 
  style="background: ;">
    <defs></defs>
    <g id="shape_KBKNxyDojC" class=""  ref="shape_KBKNxyDojC" key="shape_KBKNxyDojC" transform="translate(337.58312988281,182.5029296875) rotate(0,72.75,72.75) scale(1,1)" style="cursor:move;display:inline;opacity:1;" filter="">
            <g style="display:inline"><rect fill="rgba(0,0,0,0)" width="165.5" height="165.5" x="-10" y="-10"></rect><svg version="1.1" id="图层_1" xmlns="http://www.w3.org/2000/svg" xmlns:xlink="http://www.w3.org/1999/xlink" x="0px" y="0px" width="145.5" height="145.5" viewBox="0 0 100 100" enable-background="new 0 0 100 100" xml:space="preserve" shapetype="ellipse" class="style-removed" preserveAspectRatio="none" data-parent="shape_KBKNxyDojC">
	 <linearGradient class="linearGradient" x1="0%" y1="0%" x2="0%" y2="100%" gradientTransform="translate(0.5,0.5) rotate(0) translate(-0.5,-0.5)">
		<stop id="stop1_TSXOSnx9Ih" offset="0%" class="linearGradientColor1" stop-color="#05a"></stop>
		<stop id="stop2_EXDhE562Gm" offset="100%" class="linearGradientColor2" stop-color="#0a5"></stop>
	</linearGradient>

	<radialGradient class="radialGradient" cx="50%" cy="50%" r="50%" fx="50%" fy="50%">
		<stop offset="0%" class="radialGradientColor1" stop-color="#05a"></stop>
		<stop offset="100%" class="radialGradientColor2" stop-color="#0a5"></stop>
	</radialGradient>
	<clipPath id="f_ellipse_Z1bEtHrY9L" class="clipPath">
		<ellipse fill="none" class="element" stroke="#dddddd" stroke-width="1" stroke-miterlimit="10" cx="50" cy="50" rx="50" ry="50" data-ignorecolor=""></ellipse>
	</clipPath>
	<ellipse class="fill-color element" fill="#191919" opacity="1" cx="50" cy="50" rx="49" ry="49"></ellipse>
	<ellipse class="stroke-color element" fill="none" stroke="#dddddd" stroke-width="0" stroke-miterlimit="10" cx="50" cy="50" rx="50" ry="50" clip-path="url(#f_ellipse_Z1bEtHrY9L)"></ellipse>
</svg></g>
        </g><g id="shape_HMUyFAB88C" class="brand_name"  ref="shape_HMUyFAB88C" key="shape_HMUyFAB88C" transform="translate(256.84313579102,164.6410386731) rotate(0,212.9702,231.28760935735102) scale(1,1)" style="cursor:move;display:inline;opacity:1;" filter="">
            <g style="display:inline"><svg xmlns="http://www.w3.org/2000/svg" version="1.1" xmlns:xlink="http://www.w3.org/1999/xlink" width="441.96000000000004" height="438.42664" viewBox="0 0 441.96000000000004 438.42664" preserveAspectRatio="none" data-parent="shape_HMUyFAB88C"><rect fill="rgba(0,0,0,0)" width="192" height="62" x="62.49" y="188.21332"></rect><g data-width="191.78751239087472" transform="translate(62.59624380456264, 0)"><path d="M18.43 7.19L18.43 7.19L6.44 7.19L6.44-30.93L4.62-30.93L4.62-35.87L18.43-35.87Q21.93-35.87 25.28-34.65Q28.62-33.43 31.25-31.18L31.25-31.18Q32.43-30.18 33.65-28.71Q34.87-27.25 35.87-25.18Q36.87-23.12 37.53-20.43Q38.18-17.75 38.18-14.31L38.18-14.31Q38.18-10.94 37.53-8.25Q36.87-5.56 35.87-3.50Q34.87-1.44 33.65 0.06Q32.43 1.56 31.25 2.56L31.25 2.56Q28.62 4.75 25.28 5.97Q21.93 7.19 18.43 7.19ZM11.31-30.93L11.31 2.31L18.43 2.31Q20.50 2.31 23.06 1.56Q25.62 0.81 27.90-1.06Q30.18-2.94 31.71-6.16Q33.24-9.37 33.24-14.31L33.24-14.31Q33.24-19.25 31.71-22.47Q30.18-25.68 27.90-27.56Q25.62-29.43 23.06-30.18Q20.50-30.93 18.43-30.93L18.43-30.93L11.31-30.93Z" transform="translate(0 229.21332) skewX(0)" fill="rgb(25, 25, 25)" stroke="rgb(25, 25, 25)" stroke-width="0.104" data-glyph-w="50.80579559771868" data-glyph-h="62.302530000000004" data-glyph-ascender="41.743320000000004" data-glyph-descender="-20.55921"></path><path d="M32.49 6.94L32.49 6.94L2.56 6.94L2.56 2.50L26.37-31.06L3.69-31.06L3.69-35.93L31.81-35.93L31.81-30.25L8.87 2.00L32.49 2.00L32.49 6.94Z" transform="translate(50.80579559771868 229.21332) skewX(0)" fill="rgb(25, 25, 25)" stroke="rgb(25, 25, 25)" stroke-width="0.104" data-glyph-w="45.68161559771868" data-glyph-h="62.302530000000004" data-glyph-ascender="41.743320000000004" data-glyph-descender="-20.55921"></path><path d="M22.37-11.69L22.37 6.62L17.43 6.62L17.43-11.69L17.50-11.69L4.06-31.18L2.37-31.18L2.37-36.06L6.62-36.06L19.87-16.75L33.18-36.06L37.49-36.06L37.49-31.18L35.74-31.18L22.37-11.69Z" transform="translate(96.48741119543736 229.21332) skewX(0)" fill="rgb(25, 25, 25)" stroke="rgb(25, 25, 25)" stroke-width="0.104" data-glyph-w="49.49350559771868" data-glyph-h="62.302530000000004" data-glyph-ascender="41.743320000000004" data-glyph-descender="-20.55921"></path><path d="M31.06 5.69L31.06 5.69L5.06 5.69L5.06 0.75L31.06 0.75L31.06 5.69Z" transform="translate(145.98091679315604 229.21332) skewX(0)" fill="rgb(25, 25, 25)" stroke="rgb(25, 25, 25)" stroke-width="0.104" data-glyph-w="45.806595597718676" data-glyph-h="62.302530000000004" data-glyph-ascender="41.743320000000004" data-glyph-descender="-20.55921"></path></g></svg></g>
        </g><g id="shape_agfP22XA4d" class="brand_first"  ref="shape_agfP22XA4d" key="shape_agfP22XA4d" transform="translate(212.30747717068,-205.31423248291) rotate(0,227.214541379658,472.820257348893) scale(1,1)" style="cursor:move;display:inline;opacity:1;" filter="">
            <g style="display:inline"><svg xmlns="http://www.w3.org/2000/svg" version="1.1" xmlns:xlink="http://www.w3.org/1999/xlink" width="635.52" height="945.28" viewBox="0 0 635.52 945.28" preserveAspectRatio="none" data-parent="shape_agfP22XA4d"><rect fill="rgba(0,0,0,0)" width="110" height="157" x="131.38" y="394.14"></rect><g data-width="109.43954" transform="translate(131.66023, 0)"><path d="M2.89-39.81L2.89-39.81Q3.02-39.94 3.09-39.74Q3.15-39.55 3.02-39.28L3.02-39.28Q3.02-39.02 2.96-38.82Q2.89-38.63 2.89-38.36L2.89-38.36Q2.50-37.97 2.50-37.57L2.50-37.57Q2.50-37.44 2.36-37.31Q2.23-37.18 2.23-36.92L2.23-36.92Q2.10-36.66 1.84-35.74Q1.58-34.82 1.45-34.29L1.45-34.29Q0.92-32.84 0.53-31.33Q0.13-29.82-0.39-28.12L-0.39-28.12Q-0.39-27.98-0.53-27.85L-0.53-27.85L-0.66-27.85Q-0.92-26.93-1.05-26.08Q-1.18-25.22-1.45-24.31L-1.45-24.31Q-1.71-23.25-2.17-21.74Q-2.63-20.23-2.89-18.79L-2.89-18.79Q-3.15-17.34-3.28-16.03Q-3.42-14.71-3.68-13.01L-3.68-13.01Q-3.81-11.69-3.81-10.51Q-3.81-9.33-2.89-8.41L-2.89-8.41Q-2.63-8.15-2.17-8.21Q-1.71-8.28-1.84-7.62L-1.84-7.62Q-2.89-7.36-3.15-7.75Q-3.42-8.15-3.94-8.41L-3.94-8.41Q-4.34-8.80-4.27-9.33Q-4.20-9.85-4.47-10.51L-4.47-10.51Q-4.86-11.56-4.66-13.14Q-4.47-14.71-4.20-16.16L-4.20-16.16Q-3.94-18.00-3.48-20.23Q-3.02-22.47-2.36-24.31L-2.36-24.31Q-2.23-24.96-2.23-25.09Q-2.23-25.22-2.10-25.88L-2.10-25.88Q-1.97-26.14-1.71-26.80Q-1.45-27.46-1.31-28.12L-1.31-28.12Q-1.31-28.12-1.31-28.64L-1.31-28.64Q-1.18-28.90-1.05-29.10Q-0.92-29.30-0.92-29.56L-0.92-29.56Q-0.92-29.82-0.79-29.95Q-0.66-30.09-0.66-30.35L-0.66-30.35Q-0.53-30.61-0.46-30.74Q-0.39-30.87-0.39-31.14L-0.39-31.14Q-0.13-31.66-0.13-31.93L-0.13-31.93Q-0.13-32.19 0-32.39Q0.13-32.58 0.26-32.84L0.26-32.84Q0.26-33.11 0.53-33.63L0.53-33.63Q0.53-33.90 0.66-34.09Q0.79-34.29 0.79-34.55L0.79-34.55Q0.79-34.82 0.92-35.01Q1.05-35.21 1.18-35.47L1.18-35.47Q1.18-35.60 1.71-36.66L1.71-36.66Q1.97-37.31 2.30-38.17Q2.63-39.02 2.89-39.81ZM83.82-37.57L83.82-37.57Q82.38-36.52 81.00-35.34Q79.62-34.16 77.91-32.84L77.91-32.84Q77.78-32.84 77.91-32.71Q78.04-32.58 77.78-32.58L77.78-32.58Q77.51-32.58 76.99-32.12Q76.46-31.66 76.20-31.40L76.20-31.40Q75.81-31.01 75.28-30.87L75.28-30.87Q75.15-30.74 75.02-30.55Q74.89-30.35 74.62-30.09L74.62-30.09Q74.49-29.95 74.30-30.15Q74.10-30.35 74.10-30.09L74.10-30.09Q73.97-29.95 73.97-29.82Q73.97-29.69 73.70-29.56L73.70-29.56Q73.31-29.17 72.78-28.97Q72.26-28.77 71.86-28.51L71.86-28.51Q71.60-28.38 71.60-28.12Q71.60-27.85 71.47-27.85L71.47-27.85Q71.47-27.85 70.95-27.85L70.95-27.85Q70.68-27.59 70.68-27.20L70.68-27.20Q70.16-27.20 70.16-27.20L70.16-27.20Q69.89-27.06 69.24-26.41L69.24-26.41L68.71-26.41Q68.58-26.28 68.58-26.14L68.58-26.14Q68.58-26.01 68.45-25.88L68.45-25.88L68.19-25.88L67.92-25.88Q67.66-25.49 66.74-24.96L66.74-24.96Q66.08-24.44 64.84-23.91Q63.59-23.39 62.41-22.86L62.41-22.86Q62.01-22.60 61.55-22.27Q61.09-21.94 60.57-21.68L60.57-21.68Q60.04-21.41 59.45-21.28Q58.86-21.15 58.20-20.89L58.20-20.89Q58.20-20.50 58.07-20.50L58.07-20.50Q57.81-20.50 57.48-20.23Q57.15-19.97 56.89-19.97L56.89-19.97Q56.62-19.97 56.16-19.77Q55.71-19.58 55.31-19.44L55.31-19.44Q55.18-19.31 55.25-19.18Q55.31-19.05 55.05-19.05L55.05-19.05L54.79-19.05Q54.65-19.05 54.52-18.92L54.52-18.92L54.39-18.79Q53.34-18.39 52.16-18.00Q50.98-17.60 49.92-17.21L49.92-17.21Q49.27-16.95 48.81-16.75Q48.35-16.55 47.69-16.29L47.69-16.29Q46.64-16.03 45.98-15.77L45.98-15.77Q45.85-15.77 45.72-15.63L45.72-15.63L45.72-15.50Q45.06-15.24 44.41-15.17Q43.75-15.11 43.09-14.85L43.09-14.85Q42.96-14.85 43.03-14.78Q43.09-14.71 42.83-14.71L42.83-14.71Q42.30-14.45 42.04-14.45L42.04-14.45Q39.68-13.40 36.26-12.61L36.26-12.61Q35.21-12.35 34.09-11.96Q32.98-11.56 31.66-11.30L31.66-11.30L26.54-10.51L26.54-10.25Q26.54-10.12 26.41-10.12L26.41-10.12Q25.36-10.12 23.98-9.98Q22.60-9.85 21.28-9.59L21.28-9.59Q20.63-9.59 19.90-9.53Q19.18-9.46 18.39-9.33L18.39-9.33Q17.87-9.33 17.28-9.07Q16.69-8.80 16.29-9.33L16.29-9.33Q15.50-9.33 15.70-10.05Q15.90-10.77 15.77-11.30L15.77-11.30Q15.37-12.48 15.11-13.01L15.11-13.01Q14.32-12.74 13.53-12.68Q12.74-12.61 11.96-12.35L11.96-12.35Q11.30-12.48 11.63-11.82Q11.96-11.17 11.69-11.04L11.69-11.04Q11.43-10.77 11.50-10.58Q11.56-10.38 11.43-9.85L11.43-9.85Q11.30-9.59 11.10-9.33Q10.90-9.07 11.17-8.41L11.17-8.41Q11.30-8.15 11.30-8.28Q11.30-8.41 11.43-8.15L11.43-8.15Q11.69-7.75 12.28-7.23Q12.88-6.70 12.35-5.91L12.35-5.91Q10.51-4.86 9.72-6.17Q8.93-7.49 8.67-9.33L8.67-9.33Q8.41-11.17 8.93-13.07Q9.46-14.98 9.59-16.29L9.59-16.29Q10.25-16.69 9.66-16.95Q9.07-17.21 9.33-17.74L9.33-17.74Q10.12-17.74 10.25-18.39Q10.38-19.05 10.64-19.71L10.64-19.71Q10.90-20.36 10.97-21.02Q11.04-21.68 11.17-22.20L11.17-22.20Q11.17-22.33 11.30-22.33Q11.43-22.33 11.43-22.60L11.43-22.60Q11.43-22.99 11.56-23.39Q11.69-23.78 11.96-24.31L11.96-24.31Q12.09-24.83 12.09-25.09Q12.09-25.36 12.35-25.88L12.35-25.88Q12.35-26.01 12.42-25.95Q12.48-25.88 12.48-26.14L12.48-26.14L12.48-26.28L12.48-26.41Q12.74-26.67 12.74-26.80L12.74-26.80Q13.01-27.33 13.14-27.98Q13.27-28.64 13.40-29.30L13.40-29.30Q13.40-29.43 13.53-29.36Q13.66-29.30 13.66-29.56L13.66-29.56Q13.66-30.09 13.79-30.48Q13.93-30.87 14.19-31.40L14.19-31.40Q14.32-31.53 14.45-31.47Q14.58-31.40 14.58-31.66L14.58-31.66L14.58-32.58Q14.98-32.98 15.37-34.09Q15.77-35.21 16.03-36.00L16.03-36.00Q16.42-37.44 16.95-38.89Q17.47-40.33 18.13-41.91L18.13-41.91Q18.39-42.17 18.33-42.44Q18.26-42.70 18.39-43.09L18.39-43.09Q18.66-43.62 19.05-44.01L19.05-44.01Q19.18-44.28 19.18-44.60Q19.18-44.93 19.31-45.19L19.31-45.19Q19.31-45.33 19.44-45.26Q19.58-45.19 19.58-45.46L19.58-45.46Q19.71-46.11 20.10-46.90L20.10-46.90Q20.36-47.17 20.43-47.63Q20.50-48.09 20.76-48.61L20.76-48.61Q20.76-48.74 20.82-48.68Q20.89-48.61 20.89-48.87L20.89-48.87L20.89-49.14Q21.15-49.79 21.74-50.84Q22.33-51.90 22.73-52.81L22.73-52.81Q22.86-53.08 22.86-53.54Q22.86-54.00 23.12-54.52L23.12-54.52Q23.25-54.65 23.32-54.59Q23.39-54.52 23.39-54.79L23.39-54.79Q23.39-55.05 23.71-55.31Q24.04-55.57 24.04-55.97L24.04-55.97Q24.04-56.23 24.37-56.82Q24.70-57.41 24.96-57.81L24.96-57.81Q24.96-57.94 25.03-58.27Q25.09-58.60 25.22-58.73L25.22-58.73L25.36-58.73Q25.36-58.73 25.49-58.73L25.49-58.73Q25.62-58.73 25.49-58.92Q25.36-59.12 25.49-59.25L25.49-59.25Q25.62-59.38 26.08-60.11Q26.54-60.83 26.54-61.22L26.54-61.22Q26.67-61.49 27.20-62.54Q27.72-63.59 27.98-63.98L27.98-63.98L28.25-64.24Q28.51-64.90 28.71-65.43Q28.90-65.95 29.17-66.61L29.17-66.61Q29.30-66.74 29.36-66.68Q29.43-66.61 29.43-66.87L29.43-66.87Q29.43-67.14 29.63-67.40Q29.82-67.66 29.82-68.05L29.82-68.05Q29.82-68.45 30.41-69.17Q31.01-69.89 31.40-70.42L31.40-70.42Q32.45-72.52 33.50-74.62Q34.55-76.73 35.60-78.57L35.60-78.57Q35.74-78.70 35.80-78.63Q35.87-78.57 36.00-78.83L36.00-78.83Q36.00-79.22 36.13-79.42Q36.26-79.62 36.26-80.01L36.26-80.01Q36.39-80.27 36.66-80.40Q36.92-80.54 36.92-80.93L36.92-80.93Q36.92-81.19 37.18-81.46Q37.44-81.72 37.44-82.11L37.44-82.11Q37.57-82.38 37.84-82.51Q38.10-82.64 38.10-82.90L38.10-82.90Q38.10-83.03 38.23-83.29Q38.36-83.56 38.36-83.69L38.36-83.69Q38.49-83.82 38.69-83.82Q38.89-83.82 38.89-83.95L38.89-83.95Q39.15-84.21 39.09-84.54Q39.02-84.87 39.28-85.13L39.28-85.13Q39.41-85.40 39.81-85.59Q40.20-85.79 40.20-86.45L40.20-86.45Q38.49-86.45 37.71-85.33Q36.92-84.21 36.26-83.16L36.26-83.16Q35.74-82.11 35.14-81.00Q34.55-79.88 33.90-78.83L33.90-78.83Q33.50-78.30 33.30-77.78Q33.11-77.25 32.84-76.73L32.84-76.73Q32.71-76.59 32.58-76.66Q32.45-76.73 32.45-76.46L32.45-76.46Q32.45-76.20 32.25-75.94Q32.06-75.67 32.06-75.28L32.06-75.28Q31.93-75.02 31.66-74.76Q31.40-74.49 31.14-74.23L31.14-74.23Q31.14-74.23 31.14-73.84L31.14-73.84L31.14-73.57L30.74-73.57L30.74-73.31L30.74-73.05L30.48-73.05Q30.48-72.52 30.48-72.52L30.48-72.52Q30.48-72.39 30.35-72.52L30.35-72.52L30.22-72.52Q30.22-71.86 30.22-71.86L30.22-71.86L29.82-71.86L29.82-71.60L29.82-71.34Q29.69-71.21 29.17-70.16L29.17-70.16Q28.90-69.89 28.58-69.37Q28.25-68.84 28.25-68.58L28.25-68.58Q28.25-68.32 28.05-68.05Q27.85-67.79 27.85-67.40L27.85-67.40Q27.72-67.14 27.46-66.87Q27.20-66.61 27.20-66.22L27.20-66.22Q27.20-65.95 26.93-65.76Q26.67-65.56 26.54-65.16L26.54-65.16Q26.54-64.90 26.28-64.64Q26.01-64.38 26.01-63.98L26.01-63.98Q26.01-63.72 25.82-63.52Q25.62-63.33 25.49-62.93L25.49-62.93Q25.49-62.67 25.22-62.47Q24.96-62.27 24.96-61.88L24.96-61.88Q24.83-61.62 24.57-61.29Q24.31-60.96 24.31-60.70L24.31-60.70Q24.31-60.43 24.04-60.17Q23.78-59.91 23.78-59.52L23.78-59.52Q23.78-59.25 23.45-59.06Q23.12-58.86 23.12-58.46L23.12-58.46Q23.12-58.20 22.93-57.94Q22.73-57.68 22.73-57.28L22.73-57.28Q22.73-56.89 22.33-56.49L22.33-56.49Q21.94-55.44 21.41-54.52Q20.89-53.60 20.50-52.55L20.50-52.55Q20.50-52.55 20.50-52.29L20.50-52.29L20.50-52.03Q20.23-51.76 19.90-51.17Q19.58-50.58 19.31-50.06L19.31-50.06Q19.18-50.06 19.31-49.79Q19.44-49.53 19.31-49.53L19.31-49.53Q18.92-49.27 18.66-48.48Q18.39-47.69 18.13-46.90L18.13-46.90L18.00-46.90Q17.87-46.90 17.87-46.51L17.87-46.51Q17.87-46.11 17.67-45.92Q17.47-45.72 17.34-45.19L17.34-45.19L17.34-44.67Q17.08-44.41 16.82-43.68Q16.55-42.96 16.29-42.30L16.29-42.30Q16.03-41.65 15.83-40.99Q15.63-40.33 15.37-39.68L15.37-39.68Q15.37-39.55 15.24-39.55Q15.11-39.55 15.11-39.28L15.11-39.28Q14.98-38.89 14.98-38.63L14.98-38.63Q14.98-38.36 14.91-38.30Q14.85-38.23 14.85-38.10L14.85-38.10L14.85-37.97Q14.85-37.84 14.71-37.97L14.71-37.97L14.58-37.97L14.58-37.44Q14.32-37.18 14.12-36.59Q13.93-36.00 13.66-35.47L13.66-35.47Q13.66-34.95 13.66-34.95L13.66-34.95Q13.53-34.68 13.47-34.36Q13.40-34.03 13.14-33.37L13.14-33.37Q13.14-33.24 13.01-33.30Q12.88-33.37 12.74-33.11L12.74-33.11Q12.74-32.58 12.48-32.32L12.48-32.32Q11.69-29.95 10.90-27.20L10.90-27.20Q10.12-24.96 9.26-22.33Q8.41-19.71 7.75-16.95L7.75-16.95Q7.36-15.37 7.03-13.93Q6.70-12.48 6.70-11.30L6.70-11.30Q6.70-11.04 6.90-10.84Q7.09-10.64 6.70-10.51L6.70-10.51Q6.70-9.72 7.09-9.39Q7.49-9.07 7.75-8.41L7.75-8.41Q8.41-7.88 7.95-7.36Q7.49-6.83 7.49-6.17L7.49-6.17Q7.23-6.04 6.83-5.91Q6.44-5.78 5.78-5.91L5.78-5.91Q5.65-5.91 5.52-6.04L5.52-6.04L5.52-6.17Q4.99-6.31 4.60-6.44Q4.20-6.57 3.81-6.70L3.81-6.70Q3.42-7.09 3.28-7.36L3.28-7.36Q3.02-7.49 2.89-7.49Q2.76-7.49 2.50-7.62L2.50-7.62L1.97-8.15Q1.84-8.41 1.64-8.54Q1.45-8.67 1.45-8.80L1.45-8.80Q1.18-9.20 1.18-10.05Q1.18-10.90 1.18-11.82L1.18-11.82Q0.92-12.61 0.72-13.27Q0.53-13.93 0.53-14.45L0.53-14.45Q0.53-14.85 0.66-15.11Q0.79-15.37 0.79-15.77L0.79-15.77L0.79-17.21Q1.05-18.79 1.51-20.63Q1.97-22.47 2.50-24.31L2.50-24.31Q2.76-24.83 2.82-25.49Q2.89-26.14 3.02-26.80L3.02-26.80Q3.28-26.80 3.28-27.06L3.28-27.06L3.28-27.20Q3.28-27.85 3.55-28.51L3.55-28.51Q3.68-28.77 3.88-29.49Q4.07-30.22 4.34-30.87L4.34-30.87Q4.60-31.14 4.66-31.60Q4.73-32.06 4.99-32.58L4.99-32.58Q4.99-32.84 5.12-32.84L5.12-32.84L5.26-32.84Q5.52-33.50 5.52-34.16Q5.52-34.82 5.78-35.47L5.78-35.47Q6.04-35.47 6.04-35.74L6.04-35.74L6.04-36.00Q6.31-36.26 6.37-36.59Q6.44-36.92 6.70-37.44L6.70-37.44Q6.83-37.84 6.90-38.36Q6.96-38.89 7.23-39.28L7.23-39.28Q7.23-39.55 7.36-39.55Q7.49-39.55 7.49-39.68L7.49-39.68Q7.75-40.33 7.82-40.79Q7.88-41.25 8.15-41.91L8.15-41.91L8.28-41.91L8.28-42.04Q8.28-42.04 8.41-42.30L8.41-42.30Q8.41-42.57 8.47-42.70Q8.54-42.83 8.67-43.09L8.67-43.09Q8.80-43.36 8.93-43.75Q9.07-44.14 9.33-44.67L9.33-44.67Q9.59-45.19 9.92-46.25Q10.25-47.30 10.64-47.95L10.64-47.95Q10.64-48.74 10.90-49.14L10.90-49.14Q10.90-49.27 10.97-49.27Q11.04-49.27 11.17-49.53L11.17-49.53Q11.17-49.53 11.17-49.79L11.17-49.79Q11.17-49.92 11.30-50.06L11.30-50.06L11.43-50.06Q11.56-50.45 11.63-51.04Q11.69-51.63 11.96-52.03L11.96-52.03Q12.22-52.03 12.35-52.16L12.35-52.16Q12.35-52.95 12.48-53.34L12.48-53.34Q12.61-53.47 12.68-53.41Q12.74-53.34 12.74-53.60L12.74-53.60L12.74-53.87Q13.01-54.26 13.34-55.05Q13.66-55.84 13.93-56.49L13.93-56.49Q14.19-57.02 14.19-57.02L14.19-57.02Q14.58-57.54 14.91-58.46Q15.24-59.38 15.77-60.17L15.77-60.17Q15.90-60.43 16.09-61.03Q16.29-61.62 16.55-62.01L16.55-62.01Q16.55-62.27 16.95-62.80Q17.34-63.33 17.34-63.59L17.34-63.59Q17.34-64.11 17.87-64.90L17.87-64.90Q18.00-65.16 18.52-66.02Q19.05-66.87 19.05-67.14L19.05-67.14Q19.05-67.40 19.31-67.99Q19.58-68.58 19.84-68.84L19.84-68.84Q19.97-68.97 20.30-69.57Q20.63-70.16 20.76-70.42L20.76-70.42Q20.76-70.81 21.28-71.60L21.28-71.60L21.55-71.86Q21.81-72.13 21.74-72.46Q21.68-72.78 21.81-73.05L21.81-73.05Q22.33-73.05 22.33-73.31L22.33-73.31Q22.60-73.57 22.60-73.84Q22.60-74.10 22.73-74.36L22.73-74.36Q22.73-74.49 22.79-74.49Q22.86-74.49 22.86-74.76L22.86-74.76Q22.86-75.02 23.19-75.61Q23.52-76.20 23.78-76.46L23.78-76.46Q23.78-76.59 23.91-76.59Q24.04-76.59 24.04-76.73L24.04-76.73Q24.31-76.99 24.17-77.25Q24.04-77.51 24.31-77.78L24.31-77.78Q24.31-77.91 24.50-77.84Q24.70-77.78 24.70-78.04L24.70-78.04Q24.70-78.30 24.96-78.43Q25.22-78.57 25.22-78.83L25.22-78.83Q25.22-79.35 25.75-80.01Q26.28-80.67 26.41-81.46L26.41-81.46Q25.49-81.32 25.29-80.73Q25.09-80.14 24.70-79.48L24.70-79.48L24.31-79.09Q24.04-78.83 24.17-78.57Q24.31-78.30 24.04-78.04L24.04-78.04Q23.91-77.91 23.65-77.91L23.65-77.91Q23.52-77.91 23.39-77.78L23.39-77.78Q23.12-77.38 23.12-77.05Q23.12-76.73 22.86-76.46L22.86-76.46Q22.33-75.28 21.61-73.84Q20.89-72.39 20.10-70.95L20.10-70.95Q20.10-70.68 19.84-70.42L19.84-70.42Q19.71-70.29 19.38-69.76Q19.05-69.24 19.05-68.84L19.05-68.84Q19.05-68.71 18.92-68.58Q18.79-68.45 18.79-68.32L18.79-68.32Q18.39-67.92 18.13-67.14L18.13-67.14Q18.13-66.61 17.60-66.08L17.60-66.08Q17.47-65.82 17.15-65.23Q16.82-64.64 16.69-64.24L16.69-64.24Q16.69-64.11 16.62-63.98Q16.55-63.85 16.55-63.59L16.55-63.59Q15.63-62.14 14.85-60.17L14.85-60.17Q14.45-59.12 13.99-58.27Q13.53-57.41 13.14-56.49L13.14-56.49Q13.01-56.23 13.01-55.97Q13.01-55.71 12.74-55.31L12.74-55.31Q12.74-55.18 12.68-55.25Q12.61-55.31 12.48-55.05L12.48-55.05Q12.48-54.79 12.22-54.19Q11.96-53.60 11.69-53.08L11.69-53.08Q11.56-52.68 11.43-52.35Q11.30-52.03 11.17-51.63L11.17-51.63Q11.04-51.37 11.04-51.11Q11.04-50.84 10.90-50.58L10.90-50.58Q10.64-50.32 10.64-50.45L10.64-50.45Q10.64-50.19 10.44-49.60Q10.25-49.00 9.98-48.61L9.98-48.61Q9.85-48.09 9.66-47.63Q9.46-47.17 9.33-46.51L9.33-46.51Q8.93-46.11 8.67-45.19L8.67-45.19Q8.41-44.14 7.88-43.03Q7.36-41.91 6.96-40.73L6.96-40.73Q6.70-40.20 6.63-39.61Q6.57-39.02 6.31-38.36L6.31-38.36L6.17-38.36Q6.04-38.36 6.04-38.23L6.04-38.23Q6.04-37.97 6.04-37.97L6.04-37.97Q6.04-37.71 5.78-37.18L5.78-37.18Q5.78-36.92 5.65-36.98Q5.52-37.05 5.52-36.92L5.52-36.92Q5.12-35.87 4.80-34.75Q4.47-33.63 4.20-32.58L4.20-32.58Q3.81-31.53 3.55-30.35L3.55-30.35L3.42-30.35Q3.28-30.35 3.28-30.09L3.28-30.09L3.28-29.82Q3.15-29.56 3.22-29.30Q3.28-29.03 3.02-28.51L3.02-28.51Q3.02-28.25 2.96-28.31Q2.89-28.38 2.89-28.12L2.89-28.12L2.89-27.85Q2.23-26.41 1.58-24.31Q0.92-22.20 0.53-20.36L0.53-20.36Q-0.13-20.63 0.20-21.22Q0.53-21.81 0.53-22.20L0.53-22.20Q0.53-23.52 0.92-24.96Q1.31-26.41 1.71-27.85L1.71-27.85L1.84-27.85Q1.84-27.85 1.97-28.12L1.97-28.12Q1.97-28.77 2.04-28.90Q2.10-29.03 2.23-29.56L2.23-29.56Q2.23-30.22 2.56-30.94Q2.89-31.66 3.02-32.32L3.02-32.32Q3.28-32.98 3.28-33.63Q3.28-34.29 3.55-34.95L3.55-34.95L3.68-34.95Q3.68-34.95 3.81-35.21L3.81-35.21L3.81-35.60Q3.81-36.00 3.81-36.00L3.81-36.00Q4.34-36.39 4.47-37.44Q4.60-38.49 4.99-39.28L4.99-39.28Q4.34-39.28 4.40-38.76Q4.47-38.23 4.20-37.97L4.20-37.97Q3.55-38.23 3.74-38.76Q3.94-39.28 4.20-39.68L4.20-39.68Q4.86-43.88 6.37-48.22Q7.88-52.55 9.59-56.49L9.59-56.49Q9.85-57.15 10.05-57.94Q10.25-58.73 10.64-59.52L10.64-59.52Q10.64-59.52 10.90-59.78L10.90-59.78Q11.04-60.17 11.04-60.43Q11.04-60.70 11.17-60.96L11.17-60.96Q11.30-61.09 11.43-61.29Q11.56-61.49 11.69-61.62L11.69-61.62Q11.82-61.62 11.69-61.81Q11.56-62.01 11.69-62.01L11.69-62.01Q12.22-62.54 12.48-63.46Q12.74-64.38 13.14-65.16L13.14-65.16Q13.27-65.43 13.47-65.49Q13.66-65.56 13.66-65.82L13.66-65.82L13.66-66.22Q13.93-66.35 14.12-66.81Q14.32-67.27 14.58-67.66L14.58-67.66Q16.42-71.60 18.66-75.54Q20.89-79.48 23.12-83.29L23.12-83.29Q22.86-83.82 22.73-84.48L22.73-84.48Q22.73-84.87 22.73-85.20Q22.73-85.53 22.33-85.53L22.33-85.53Q21.94-86.05 21.68-86.38Q21.41-86.71 21.28-87.37L21.28-87.37Q21.15-88.29 21.61-89.27Q22.07-90.26 22.73-90.91L22.73-90.91Q22.86-91.18 22.99-91.24Q23.12-91.31 23.39-91.57L23.39-91.57Q24.04-91.83 24.77-92.43Q25.49-93.02 26.41-93.54L26.41-93.54Q27.20-94.07 27.85-94.33L27.85-94.33Q28.12-94.99 28.90-94.99L28.90-94.99Q29.17-94.99 29.43-95.25L29.43-95.25Q29.43-95.25 30.22-95.51L30.22-95.51Q30.35-95.64 30.48-95.84Q30.61-96.04 30.74-96.17L30.74-96.17Q31.01-96.30 31.20-96.24Q31.40-96.17 31.66-96.30L31.66-96.30Q32.32-96.83 32.84-97.48Q33.37-98.14 33.90-98.80L33.90-98.80L35.08-99.98Q35.74-100.64 36.00-101.29Q36.26-101.95 36.92-102.61L36.92-102.61Q37.18-102.87 37.51-103.07Q37.84-103.26 38.10-103.53L38.10-103.53Q38.49-103.92 39.55-104.45L39.55-104.45Q39.81-104.71 40.07-105.04Q40.33-105.37 40.99-105.24L40.99-105.24Q41.12-104.71 40.33-104.18L40.33-104.18Q40.33-104.05 40.07-104.05L40.07-104.05Q39.94-104.05 39.81-103.92L39.81-103.92L39.81-103.40Q39.55-103.13 39.35-103.00Q39.15-102.87 38.89-102.61L38.89-102.61Q38.63-102.35 38.63-102.15Q38.63-101.95 38.36-101.69L38.36-101.69Q37.71-100.77 37.11-99.85Q36.52-98.93 36.00-97.88L36.00-97.88Q36.52-97.88 36.66-98.14Q36.79-98.40 36.92-98.53L36.92-98.53Q36.92-98.53 37.18-98.67L37.18-98.67Q37.31-98.67 37.44-98.80L37.44-98.80Q37.44-98.80 37.44-99.32L37.44-99.32Q37.84-99.72 38.23-100.05Q38.63-100.37 38.89-100.77L38.89-100.77Q39.02-101.03 39.09-101.10Q39.15-101.16 39.28-101.43L39.28-101.43Q39.55-101.69 40.01-102.21Q40.47-102.74 40.99-103.00L40.99-103.00Q41.12-103.26 41.25-103.46Q41.38-103.66 41.52-103.92L41.52-103.92Q42.04-103.92 42.04-103.92L42.04-103.92Q42.30-104.18 42.50-104.38Q42.70-104.58 43.36-104.84L43.36-104.84Q43.88-104.97 44.14-105.30Q44.41-105.63 45.06-105.63L45.06-105.63Q45.06-105.37 45.26-105.37Q45.46-105.37 45.72-105.24L45.72-105.24Q45.98-105.10 46.25-104.97Q46.51-104.84 47.17-104.84L47.17-104.84Q47.56-103.92 47.89-103.07Q48.22-102.21 47.95-100.77L47.95-100.77Q49.00-100.51 49.92-100.77Q50.84-101.03 51.76-101.03L51.76-101.03Q52.42-101.16 53.08-101.10Q53.73-101.03 54.39-101.03L54.39-101.03Q57.28-101.29 60.83-101.29Q64.38-101.29 67.66-100.77L67.66-100.77Q67.92-100.77 68.05-100.64Q68.19-100.51 68.45-100.51L68.45-100.51Q69.11-100.51 69.89-100.31Q70.68-100.11 71.47-99.98L71.47-99.98Q72.13-99.85 72.52-99.85Q72.92-99.85 73.57-99.72L73.57-99.72Q73.70-99.72 73.64-99.59Q73.57-99.45 73.70-99.32L73.70-99.32Q74.36-99.32 74.76-99.13Q75.15-98.93 75.67-98.80L75.67-98.80Q76.07-98.80 76.27-98.80Q76.46-98.80 77.12-98.53L77.12-98.53L77.12-98.40Q77.12-98.27 77.51-98.27L77.51-98.27Q77.51-98.27 77.78-98.27L77.78-98.27Q77.91-98.14 78.11-98.14Q78.30-98.14 78.57-97.88L78.57-97.88Q78.83-97.88 78.76-97.81Q78.70-97.75 78.83-97.75L78.83-97.75Q79.22-97.48 79.68-97.42Q80.14-97.35 80.54-97.09L80.54-97.09Q81.32-96.70 82.05-96.37Q82.77-96.04 83.43-95.51L83.43-95.51Q85.40-94.72 87.37-93.54L87.37-93.54L87.37-93.41Q87.37-93.28 87.50-93.28L87.50-93.28Q88.29-93.02 88.42-92.89L88.42-92.89Q88.42-92.75 88.55-92.62L88.55-92.62Q88.81-92.36 88.81-92.36L88.81-92.36Q88.94-92.36 89.21-92.36Q89.47-92.36 89.73-92.10L89.73-92.10Q89.86-91.97 89.93-91.70Q90.00-91.44 90.26-91.18L90.26-91.18Q90.52-91.05 90.72-91.05Q90.91-91.05 91.18-90.91L91.18-90.91Q91.44-90.65 91.77-90.39Q92.10-90.13 92.36-89.73L92.36-89.73Q93.02-89.21 93.48-88.62Q93.94-88.02 94.59-87.37L94.59-87.37Q95.64-85.92 96.56-84.54Q97.48-83.16 98.53-81.72L98.53-81.72Q98.53-81.59 98.60-81.65Q98.67-81.72 98.67-81.46L98.67-81.46Q98.80-81.19 99.06-80.93Q99.32-80.67 99.59-80.40L99.59-80.40L101.16-78.04Q101.16-77.78 101.36-77.51Q101.56-77.25 101.56-76.86L101.56-76.86L101.56-76.46Q101.56-76.33 101.75-76.20Q101.95-76.07 102.08-75.81L102.08-75.81Q102.21-75.54 102.21-75.28Q102.21-75.02 102.35-74.76L102.35-74.76Q102.61-74.23 102.87-72.52L102.87-72.52Q102.87-72.39 103.00-72.26L103.00-72.26L103.13-72.26Q103.40-71.60 103.40-71.01Q103.40-70.42 103.53-70.03L103.53-70.03L103.79-69.76Q103.79-69.50 103.72-69.43Q103.66-69.37 103.79-69.11L103.79-69.11Q104.05-67.92 104.18-65.82Q104.32-63.72 104.05-62.01L104.05-62.01Q103.92-61.35 103.66-60.57Q103.40-59.78 103.13-58.99L103.13-58.99Q102.87-58.20 102.74-57.41Q102.61-56.62 102.35-55.97L102.35-55.97Q102.35-55.84 102.08-55.71Q101.82-55.57 101.82-55.31L101.82-55.31Q101.69-55.18 101.75-54.92Q101.82-54.65 101.82-54.52L101.82-54.52Q101.69-54.26 101.56-54.19Q101.43-54.13 101.43-53.87L101.43-53.87Q101.43-53.87 101.43-53.34L101.43-53.34L101.16-53.34Q100.90-53.08 100.77-52.68Q100.64-52.29 100.51-52.03L100.51-52.03Q100.37-51.76 100.31-51.83Q100.24-51.90 100.24-51.63L100.24-51.63Q100.24-51.37 99.91-51.04Q99.59-50.71 99.32-50.45L99.32-50.45Q99.19-50.06 98.93-49.79L98.93-49.79Q98.93-49.53 98.73-49.46Q98.53-49.40 98.53-49.14L98.53-49.14L98.53-48.61L98.27-48.61L98.14-48.61Q98.01-48.35 98.01-48.15Q98.01-47.95 97.88-47.82L97.88-47.82Q97.88-47.69 97.68-47.69Q97.48-47.69 97.22-47.43L97.22-47.43Q97.09-47.17 97.02-46.90Q96.96-46.64 96.70-46.38L96.70-46.38Q96.56-46.11 96.43-46.05Q96.30-45.98 96.17-45.72L96.17-45.72Q96.04-45.59 95.51-45.13Q94.99-44.67 94.99-44.41L94.99-44.41Q94.99-44.01 94.66-43.82Q94.33-43.62 94.07-43.36L94.07-43.36Q93.81-43.09 93.74-42.76Q93.67-42.44 93.41-42.30L93.41-42.30Q93.02-41.65 92.49-41.19Q91.97-40.73 91.44-40.07L91.44-40.07Q90.39-39.02 89.34-37.90Q88.29-36.79 86.97-35.74L86.97-35.74Q86.84-35.60 86.91-35.54Q86.97-35.47 86.71-35.47L86.71-35.47Q86.19-35.47 85.66-34.68Q85.13-33.90 84.74-33.37L84.74-33.37Q84.48-33.24 84.28-33.30Q84.08-33.37 83.82-33.11L83.82-33.11Q83.56-32.84 83.43-32.52Q83.29-32.19 83.03-31.93L83.03-31.93Q82.90-31.93 82.70-31.99Q82.51-32.06 82.38-31.93L82.38-31.93Q82.24-31.79 82.11-31.47Q81.98-31.14 81.72-31.14L81.72-31.14Q81.46-31.01 81.13-30.68Q80.80-30.35 80.54-30.09L80.54-30.09Q80.27-29.95 80.08-29.95Q79.88-29.95 79.62-29.82L79.62-29.82Q79.48-29.82 79.55-29.69Q79.62-29.56 79.35-29.56L79.35-29.56Q78.96-29.43 78.83-29.10Q78.70-28.77 78.30-28.64L78.30-28.64Q78.04-28.64 77.71-28.38Q77.38-28.12 77.12-27.85L77.12-27.85Q76.86-27.72 76.79-27.52Q76.73-27.33 76.59-27.20L76.59-27.20Q76.46-27.20 76.27-27.26Q76.07-27.33 75.94-27.20L75.94-27.20L75.94-27.06Q75.67-26.80 75.15-26.80L75.15-26.80Q75.15-26.67 75.08-26.60Q75.02-26.54 75.02-26.41L75.02-26.41L75.02-26.14Q74.76-26.01 74.56-26.01Q74.36-26.01 74.10-25.88L74.10-25.88Q73.97-25.75 73.84-25.68Q73.70-25.62 73.57-25.49L73.57-25.49Q73.31-25.49 73.24-25.29Q73.18-25.09 72.92-24.96L72.92-24.96Q72.39-24.96 72.39-24.96L72.39-24.96L72.39-24.70Q71.60-24.31 70.95-24.31L70.95-24.31Q70.68-24.17 70.62-23.98Q70.55-23.78 70.42-23.65L70.42-23.65Q70.16-23.52 69.96-23.65Q69.76-23.78 69.76-23.65L69.76-23.65Q69.50-23.39 68.97-23.12Q68.45-22.86 67.92-22.60L67.92-22.60Q67.79-22.47 67.86-22.33Q67.92-22.20 67.66-22.20L67.66-22.20L67.27-22.20Q61.88-19.58 56.62-17.74L56.62-17.74Q50.98-15.63 45.19-13.73Q39.41-11.82 33.11-10.77L33.11-10.77Q32.84-10.77 32.78-10.64Q32.71-10.51 32.45-10.51L32.45-10.51Q32.19-10.51 32.25-10.64Q32.32-10.77 32.45-10.77L32.45-10.77Q35.08-11.56 37.77-12.28Q40.47-13.01 43.09-14.06L43.09-14.06Q43.49-14.19 43.68-14.32Q43.88-14.45 44.28-14.71L44.28-14.71Q44.67-14.85 44.87-14.71Q45.06-14.58 45.72-14.85L45.72-14.85Q45.85-14.98 46.05-15.17Q46.25-15.37 46.25-15.50L46.25-15.50Q46.64-15.77 47.43-15.77L47.43-15.77Q47.82-16.03 48.54-16.16Q49.27-16.29 49.92-16.55L49.92-16.55Q50.06-16.69 49.99-16.82Q49.92-16.95 50.06-16.95L50.06-16.95Q50.45-17.08 50.98-17.15Q51.50-17.21 51.76-17.47L51.76-17.47Q52.29-17.74 53.21-18.00Q54.13-18.26 54.79-18.52L54.79-18.52Q54.92-18.66 55.18-18.66Q55.44-18.66 55.71-18.79L55.71-18.79Q55.71-19.18 55.97-19.44L55.97-19.44Q56.62-19.58 57.81-19.97L57.81-19.97Q58.20-19.97 58.60-20.36L58.60-20.36Q59.12-20.36 59.12-20.89L59.12-20.89Q59.38-21.02 59.71-20.96Q60.04-20.89 60.30-21.15L60.30-21.15L60.83-21.68Q61.35-21.94 61.75-22.01Q62.14-22.07 62.41-22.20L62.41-22.20Q62.67-22.33 62.80-22.53Q62.93-22.73 63.06-22.86L63.06-22.86Q63.33-22.99 63.85-22.99L63.85-22.99Q64.24-23.25 64.64-23.45Q65.03-23.65 65.30-23.91L65.30-23.91Q66.08-24.31 66.94-24.70Q67.79-25.09 68.45-25.49L68.45-25.49Q68.84-25.62 68.84-26.14L68.84-26.14Q69.11-26.41 69.30-26.34Q69.50-26.28 69.76-26.41L69.76-26.41Q70.03-26.54 70.09-26.67Q70.16-26.80 70.42-27.06L70.42-27.06Q70.55-27.06 70.81-27.06Q71.08-27.06 71.21-27.20L71.21-27.20Q71.47-27.46 71.47-27.85L71.47-27.85Q72.26-28.12 72.65-28.51L72.65-28.51Q72.92-28.51 73.18-29.03L73.18-29.03Q73.44-29.17 73.64-29.10Q73.84-29.03 74.10-29.30L74.10-29.30Q74.36-29.56 74.62-29.82Q74.89-30.09 75.15-30.35L75.15-30.35Q75.41-30.61 75.87-30.74Q76.33-30.87 76.59-31.14L76.59-31.14Q76.86-31.40 77.12-31.73Q77.38-32.06 77.78-32.32L77.78-32.32Q78.17-32.71 79.22-33.11L79.22-33.11Q79.48-33.37 79.75-33.70Q80.01-34.03 80.27-34.29L80.27-34.29Q80.54-34.55 80.93-34.82Q81.32-35.08 81.46-35.47L81.46-35.47Q82.11-35.74 82.70-36.33Q83.29-36.92 83.82-37.57ZM72.39-95.51L72.39-95.51Q72.00-95.64 71.67-95.64Q71.34-95.64 70.95-95.91L70.95-95.91L70.95-96.04L70.95-96.17Q70.68-96.30 70.35-96.17Q70.03-96.04 69.76-96.30L69.76-96.30L69.24-96.30Q68.84-96.30 68.65-96.37Q68.45-96.43 68.05-96.56L68.05-96.56L67.27-96.56Q65.03-96.96 62.47-97.02Q59.91-97.09 57.15-97.09L57.15-97.09Q55.71-97.09 54.06-97.22Q52.42-97.35 51.37-97.09L51.37-97.09Q50.71-96.96 49.99-96.76Q49.27-96.56 49.27-95.51L49.27-95.51Q52.95-95.78 56.82-95.97Q60.70-96.17 64.51-95.91L64.51-95.91Q64.77-95.91 64.90-95.71Q65.03-95.51 65.30-95.51L65.30-95.51L66.74-95.51Q67.79-95.51 68.91-95.38Q70.03-95.25 70.95-95.25L70.95-95.25Q71.08-95.25 71.21-95.12Q71.34-94.99 71.21-94.99L71.21-94.99Q71.86-94.99 72.59-94.92Q73.31-94.86 73.57-95.25L73.57-95.25Q73.18-95.12 72.92-95.32Q72.65-95.51 72.39-95.51ZM44.01-94.59L44.01-94.59Q46.51-94.59 46.90-96.56L46.90-96.56Q45.85-96.30 45.00-95.97Q44.14-95.64 44.01-94.59ZM40.99-94.59L40.99-94.59Q40.60-94.59 40.33-94.07L40.33-94.07Q40.99-94.07 41.32-94.92Q41.65-95.78 41.25-95.25L41.25-95.25Q40.73-95.25 40.99-94.59ZM31.66-91.18L31.66-91.18Q32.45-91.44 32.78-92.03Q33.11-92.62 33.37-93.28L33.37-93.28Q32.58-93.15 32.25-92.49Q31.93-91.83 31.66-91.18ZM91.18-88.55L91.18-88.55Q91.44-88.29 91.77-88.22Q92.10-88.16 92.36-88.02L92.36-88.02Q92.62-87.76 92.75-87.56Q92.89-87.37 93.15-87.10L93.15-87.10Q93.41-86.84 93.61-86.65Q93.81-86.45 94.07-86.19L94.07-86.19Q94.20-86.05 94.40-85.86Q94.59-85.66 94.86-85.92L94.86-85.92Q94.20-86.58 93.87-87.24Q93.54-87.89 92.89-88.55L92.89-88.55Q91.83-89.47 90.91-90.13Q90.00-90.78 89.08-91.57L89.08-91.57Q88.81-91.57 88.68-91.70Q88.55-91.83 88.42-91.57L88.42-91.57Q89.21-91.05 89.73-90.13Q90.26-89.21 91.18-88.55ZM22.86-86.45L22.86-86.45Q23.65-86.45 24.04-86.84L24.04-86.84Q24.44-87.50 25.36-87.96Q26.28-88.42 26.93-89.08L26.93-89.08Q27.06-89.21 27.06-89.47Q27.06-89.73 27.20-89.73L27.20-89.73Q27.33-89.86 27.46-90.06Q27.59-90.26 27.20-90.39L27.20-90.39Q26.14-89.34 24.63-88.75Q23.12-88.16 22.86-86.45ZM87.50-78.83L87.50-78.83Q87.50-79.09 87.43-79.16Q87.37-79.22 87.37-79.48L87.37-79.48Q87.10-79.88 87.17-80.14Q87.24-80.40 86.97-80.67L86.97-80.67L86.97-81.32Q86.71-82.11 86.32-83.23Q85.92-84.35 85.66-84.74L85.66-84.74Q85.13-85.27 83.75-85.86Q82.38-86.45 81.72-86.45L81.72-86.45Q81.46-86.45 81.46-86.58L81.46-86.58L81.46-86.84Q80.80-87.10 80.14-87.10Q79.48-87.10 78.83-87.37L78.83-87.37L78.83-87.76L78.57-87.76Q78.30-87.76 78.30-87.76L78.30-87.76Q77.65-88.02 77.25-88.02Q76.86-88.02 76.20-88.29L76.20-88.29Q70.68-89.60 64.24-89.73Q57.81-89.86 52.16-89.47L52.16-89.47Q51.90-89.34 51.70-89.21Q51.50-89.08 51.37-89.08L51.37-89.08Q50.58-88.94 50.19-89.01Q49.79-89.08 49.53-88.81L49.53-88.81Q49.53-88.81 49.27-88.81L49.27-88.81L49.14-88.81Q48.09-88.55 47.10-88.42Q46.11-88.29 45.06-88.02L45.06-88.02Q44.54-87.37 44.41-86.78Q44.28-86.19 44.01-85.53L44.01-85.53Q43.88-85.53 43.75-85.40Q43.62-85.27 43.36-85.13L43.36-85.13Q43.09-84.74 43.09-84.21Q43.09-83.69 42.83-83.29L42.83-83.29Q42.44-83.29 42.44-82.90L42.44-82.90Q42.17-82.64 42.24-82.31Q42.30-81.98 42.04-81.72L42.04-81.72Q42.04-81.32 41.52-81.32L41.52-81.32Q41.38-81.06 41.38-80.80Q41.38-80.54 41.25-80.40L41.25-80.40Q40.86-79.75 40.40-78.83Q39.94-77.91 39.81-77.38L39.81-77.38L39.81-76.86Q39.68-76.86 39.55-76.73L39.55-76.73L39.28-76.46Q39.02-76.20 39.09-75.87Q39.15-75.54 38.89-75.28L38.89-75.28Q38.89-75.15 38.69-75.02Q38.49-74.89 38.36-74.76L38.36-74.76Q38.10-74.10 38.03-73.77Q37.97-73.44 37.71-73.05L37.71-73.05Q37.71-72.78 37.51-72.72Q37.31-72.65 37.18-72.52L37.18-72.52L37.18-71.86Q37.18-71.60 37.05-71.67Q36.92-71.73 36.92-71.60L36.92-71.60Q36.66-70.81 36.46-70.29Q36.26-69.76 36.00-69.11L36.00-69.11Q35.87-68.84 35.87-68.71Q35.87-68.58 35.60-68.32L35.60-68.32Q35.60-68.19 35.41-68.05Q35.21-67.92 35.08-67.66L35.08-67.66Q34.95-67.40 34.95-67.27Q34.95-67.14 34.82-66.87L34.82-66.87Q34.55-66.61 34.55-66.22L34.55-66.22L34.42-66.08L34.29-66.08Q34.03-65.56 33.96-65.16Q33.90-64.77 33.63-64.24L33.63-64.24Q33.50-64.11 33.30-63.98Q33.11-63.85 33.11-63.59L33.11-63.59Q32.84-63.46 32.91-63.19Q32.98-62.93 32.84-62.67L32.84-62.67Q32.71-62.54 32.52-62.41Q32.32-62.27 32.19-62.01L32.19-62.01Q32.06-61.88 32.06-61.22L32.06-61.22Q31.79-60.83 31.73-60.37Q31.66-59.91 31.40-59.52L31.40-59.52Q31.27-59.38 31.07-59.25Q30.87-59.12 30.74-58.99L30.74-58.99Q30.61-58.73 30.61-58.53Q30.61-58.33 30.48-58.07L30.48-58.07Q30.22-57.68 30.02-57.41Q29.82-57.15 29.82-56.89L29.82-56.89Q29.82-56.62 29.76-56.62Q29.69-56.62 29.56-56.49L29.56-56.49Q29.30-55.57 29.17-54.59Q29.03-53.60 28.64-52.81L28.64-52.81Q28.51-52.68 28.31-52.55Q28.12-52.42 27.98-52.16L27.98-52.16Q27.85-52.03 27.98-51.90Q28.12-51.76 27.98-51.63L27.98-51.63Q27.85-51.37 27.72-51.11Q27.59-50.84 27.46-50.58L27.46-50.58Q27.33-50.19 27.20-49.92Q27.06-49.66 26.93-49.14L26.93-49.14Q26.80-49.00 26.74-49.00Q26.67-49.00 26.54-48.87L26.54-48.87Q26.28-48.35 26.28-48.02Q26.28-47.69 26.01-47.17L26.01-47.17Q26.01-47.03 25.82-46.90Q25.62-46.77 25.49-46.51L25.49-46.51Q25.22-46.25 25.22-45.79Q25.22-45.33 24.96-44.93L24.96-44.93Q24.70-44.54 24.50-44.14Q24.31-43.75 24.04-43.36L24.04-43.36Q23.91-43.09 23.91-42.96Q23.91-42.83 23.78-42.57L23.78-42.57Q23.65-42.30 23.45-42.17Q23.25-42.04 23.12-41.91L23.12-41.91Q22.86-41.52 22.86-40.92Q22.86-40.33 22.73-39.81L22.73-39.81Q22.73-39.68 22.47-39.61Q22.20-39.55 22.20-39.28L22.20-39.28L22.20-38.76Q21.94-38.10 21.61-37.71Q21.28-37.31 20.89-36.92L20.89-36.92Q20.89-37.57 21.55-38.30Q22.20-39.02 21.55-39.68L21.55-39.68Q20.89-37.71 20.04-35.74Q19.18-33.76 18.39-31.93L18.39-31.93Q18.39-31.40 18.13-31.14L18.13-31.14Q18.13-30.87 18.00-30.94Q17.87-31.01 17.87-30.87L17.87-30.87Q17.74-30.74 17.80-30.55Q17.87-30.35 17.87-30.09L17.87-30.09Q17.87-29.95 17.60-29.82Q17.34-29.69 17.34-29.56L17.34-29.56Q17.08-29.30 17.08-28.84Q17.08-28.38 17.08-28.12L17.08-28.12Q16.82-27.46 16.55-27.00Q16.29-26.54 16.29-25.88L16.29-25.88Q16.29-25.62 16.16-25.62Q16.03-25.62 16.03-25.49L16.03-25.49Q15.90-25.22 15.96-25.09Q16.03-24.96 16.03-24.70L16.03-24.70L15.37-24.31Q15.37-23.65 15.11-22.86L15.11-22.86Q14.85-22.20 14.58-21.22Q14.32-20.23 13.93-19.97L13.93-19.97Q13.79-19.71 13.86-18.98Q13.93-18.26 14.19-18.52L14.19-18.52Q14.58-19.18 15.63-18.98Q16.69-18.79 17.08-19.05L17.08-19.05Q17.21-19.18 16.95-19.44Q16.69-19.71 17.08-19.71L17.08-19.71Q17.21-19.58 17.67-19.31Q18.13-19.05 18.13-19.71L18.13-19.71Q17.87-19.71 17.74-19.77Q17.60-19.84 17.87-19.97L17.87-19.97Q22.73-21.28 27.59-22.86Q32.45-24.44 36.66-26.14L36.66-26.14Q37.44-26.41 38.49-26.80Q39.55-27.20 39.81-27.59L39.81-27.59Q40.07-27.85 40.60-27.79Q41.12-27.72 41.25-27.85L41.25-27.85Q41.38-27.85 41.52-28.12Q41.65-28.38 41.78-28.51L41.78-28.51Q42.44-28.51 42.44-28.51L42.44-28.51Q42.57-28.51 42.57-28.64L42.57-28.64L45.33-29.82Q47.03-30.48 48.28-31.20Q49.53-31.93 50.98-32.58L50.98-32.58Q51.37-32.84 51.76-32.84Q52.16-32.84 52.42-33.11L52.42-33.11Q52.68-33.24 52.75-33.44Q52.81-33.63 52.95-33.63L52.95-33.63Q53.73-34.16 53.87-34.29L53.87-34.29Q54.00-34.42 54.19-34.29Q54.39-34.16 54.39-34.29L54.39-34.29Q54.65-34.42 54.72-34.55Q54.79-34.68 55.05-34.95L55.05-34.95Q55.57-35.21 56.10-35.47Q56.62-35.74 56.89-36.00L56.89-36.00Q57.28-36.39 57.41-36.66L57.41-36.66Q58.20-36.92 58.20-36.92L58.20-36.92Q58.46-37.05 58.86-37.44L58.86-37.44Q59.38-37.71 59.97-37.90Q60.57-38.10 60.83-38.36L60.83-38.36Q61.09-38.63 61.16-38.76Q61.22-38.89 61.49-39.02L61.49-39.02Q61.75-39.28 62.14-39.28L62.14-39.28Q62.14-39.55 62.41-39.81L62.41-39.81Q62.80-40.07 63.19-40.27Q63.59-40.47 63.85-40.73L63.85-40.73L63.85-40.86L63.85-40.99Q63.98-41.12 64.18-41.06Q64.38-40.99 64.51-40.99L64.51-40.99Q64.77-41.25 64.90-41.65Q65.03-42.04 65.30-42.30L65.30-42.30Q65.95-42.30 66.22-42.57L66.22-42.57Q66.48-42.70 66.61-43.03Q66.74-43.36 67.00-43.62L67.00-43.62Q67.27-43.75 67.46-43.68Q67.66-43.62 67.92-43.88L67.92-43.88Q68.19-44.14 68.38-44.47Q68.58-44.80 68.71-44.93L68.71-44.93Q68.84-45.06 69.04-45.06Q69.24-45.06 69.50-45.19L69.50-45.19Q70.16-45.85 70.55-46.44Q70.95-47.03 71.47-47.43L71.47-47.43Q71.73-47.69 72.00-47.69Q72.26-47.69 72.39-47.82L72.39-47.82Q73.05-48.22 73.51-48.94Q73.97-49.66 74.36-50.06L74.36-50.06Q74.49-50.19 74.76-50.19Q75.02-50.19 75.15-50.45L75.15-50.45Q75.67-50.71 76.13-51.30Q76.59-51.90 77.12-52.55L77.12-52.55Q77.12-52.55 77.12-52.81L77.12-52.81Q77.12-52.95 77.32-52.81Q77.51-52.68 77.78-52.81L77.78-52.81Q77.78-52.95 77.65-53.08Q77.51-53.21 77.78-53.34L77.78-53.34Q77.78-53.47 77.97-53.34Q78.17-53.21 78.30-53.34L78.30-53.34Q78.30-53.47 78.30-53.80Q78.30-54.13 78.57-54.26L78.57-54.26Q79.09-54.92 80.21-55.77Q81.32-56.62 81.46-57.02L81.46-57.02Q81.46-57.28 81.52-57.22Q81.59-57.15 81.72-57.28L81.72-57.28Q81.98-57.81 82.38-58.20Q82.77-58.60 83.03-58.99L83.03-58.99L83.82-60.17Q83.95-60.30 84.15-60.43Q84.35-60.57 84.35-60.70L84.35-60.70Q84.61-60.96 84.54-61.16Q84.48-61.35 84.74-61.62L84.74-61.62Q84.74-61.75 85.00-61.75Q85.27-61.75 85.27-61.88L85.27-61.88Q85.40-62.01 85.40-62.21Q85.40-62.41 85.66-62.67L85.66-62.67Q85.66-62.93 85.86-63.00Q86.05-63.06 86.05-63.33L86.05-63.33Q86.32-63.46 86.25-63.59Q86.19-63.72 86.45-63.98L86.45-63.98Q86.58-64.11 86.78-64.11Q86.97-64.11 86.97-64.24L86.97-64.24Q87.10-64.51 87.10-64.70Q87.10-64.90 87.37-65.16L87.37-65.16Q88.68-67.53 89.80-70.22Q90.91-72.92 91.44-75.81L91.44-75.81Q91.57-76.33 91.51-76.79Q91.44-77.25 91.44-77.78L91.44-77.78L91.57-77.78Q91.57-77.78 91.70-78.04L91.70-78.04Q91.70-78.17 91.57-78.11Q91.44-78.04 91.44-78.30L91.44-78.30Q91.44-78.43 91.57-78.43L91.57-78.43Q91.57-78.43 91.70-78.57L91.70-78.57Q91.83-78.96 91.64-79.09Q91.44-79.22 91.44-79.48L91.44-79.48Q91.18-80.01 91.37-80.40Q91.57-80.80 91.44-81.32L91.44-81.32Q90.26-82.24 89.21-82.97Q88.16-83.69 86.71-84.21L86.71-84.21Q86.97-83.16 87.43-81.85Q87.89-80.54 88.16-79.09L88.16-79.09Q88.29-77.65 88.22-75.81Q88.16-73.97 87.89-73.05L87.89-73.05Q87.63-72.00 87.30-71.01Q86.97-70.03 86.71-69.37L86.71-69.37Q86.45-68.84 86.19-68.25Q85.92-67.66 85.92-67.40L85.92-67.40Q85.66-67.00 85.59-66.54Q85.53-66.08 85.00-66.08L85.00-66.08Q86.19-68.58 87.04-72.00Q87.89-75.41 87.50-78.83ZM29.17-87.37L29.17-87.37Q29.56-87.24 30.02-87.76Q30.48-88.29 29.82-88.55L29.82-88.55Q29.82-88.16 29.56-88.02Q29.30-87.89 29.17-87.37ZM95.38-70.42L95.38-70.42Q95.25-70.16 95.32-69.83Q95.38-69.50 95.38-69.11L95.38-69.11Q95.12-68.32 94.99-67.33Q94.86-66.35 94.59-65.43L94.59-65.43Q94.33-64.77 94.00-64.05Q93.67-63.33 93.41-62.67L93.41-62.67Q93.15-61.88 92.89-61.16Q92.62-60.43 92.36-59.78L92.36-59.78L92.10-59.78Q92.10-59.78 92.10-59.25L92.10-59.25Q91.97-58.99 91.77-58.92Q91.57-58.86 91.44-58.73L91.44-58.73Q91.18-58.33 91.11-57.94Q91.05-57.54 90.78-57.28L90.78-57.28Q90.78-57.28 90.52-57.28L90.52-57.28Q90.52-56.89 90.52-56.89L90.52-56.89Q90.52-56.62 90.32-56.56Q90.13-56.49 90.00-56.23L90.00-56.23Q89.86-55.97 89.73-55.57L89.73-55.57Q89.60-55.44 89.34-55.25Q89.08-55.05 89.08-54.79L89.08-54.79Q89.08-54.52 89.01-54.59Q88.94-54.65 88.81-54.52L88.81-54.52Q88.68-54.26 88.68-54.06Q88.68-53.87 88.55-53.60L88.55-53.60Q88.55-53.73 88.16-53.34L88.16-53.34Q87.89-53.21 87.96-53.01Q88.02-52.81 87.89-52.55L87.89-52.55Q87.76-52.42 87.56-52.42Q87.37-52.42 87.37-52.16L87.37-52.16Q87.10-52.03 87.10-51.83Q87.10-51.63 86.97-51.37L86.97-51.37Q86.71-50.98 86.32-50.78Q85.92-50.58 85.92-50.45L85.92-50.45Q85.79-49.79 84.94-49.27Q84.08-48.74 84.08-48.35L84.08-48.35Q84.08-47.95 83.75-47.82Q83.43-47.69 83.29-47.43L83.29-47.43Q81.19-45.19 78.96-42.96Q76.73-40.73 74.36-38.76L74.36-38.76Q73.84-38.49 73.51-37.97Q73.18-37.44 72.92-37.44L72.92-37.44Q72.78-37.31 72.59-37.31Q72.39-37.31 72.13-37.18L72.13-37.18Q71.47-36.66 70.95-36.06Q70.42-35.47 69.76-35.47L69.76-35.47Q69.76-35.21 69.63-35.08Q69.50-34.95 69.76-34.95L69.76-34.95Q71.60-36.39 73.70-37.77Q75.81-39.15 77.91-40.99L77.91-40.99Q78.57-41.65 79.35-42.37Q80.14-43.09 80.80-43.62L80.80-43.62Q81.59-44.28 82.18-44.93Q82.77-45.59 83.43-46.38L83.43-46.38Q84.08-46.90 84.61-47.23Q85.13-47.56 85.66-47.95L85.66-47.95Q85.92-48.48 86.32-49.07Q86.71-49.66 86.97-50.06L86.97-50.06Q87.24-50.32 87.76-50.58Q88.29-50.84 88.42-51.11L88.42-51.11Q88.42-51.76 88.55-52.03L88.55-52.03Q88.81-52.29 89.01-52.42Q89.21-52.55 89.47-52.81L89.47-52.81Q90.26-53.87 90.52-53.87L90.52-53.87Q90.65-54.00 90.59-54.19Q90.52-54.39 90.52-54.52L90.52-54.52Q91.18-54.79 91.18-55.05L91.18-55.05Q91.18-55.31 91.24-55.25Q91.31-55.18 91.44-55.31L91.44-55.31Q91.57-55.57 91.57-55.77Q91.57-55.97 91.70-56.23L91.70-56.23Q92.36-56.89 92.62-57.02L92.62-57.02Q92.62-57.02 92.89-57.68L92.89-57.68Q93.15-57.94 93.48-58.27Q93.81-58.60 93.81-58.99L93.81-58.99Q93.81-59.25 94.07-59.84Q94.33-60.43 94.59-60.70L94.59-60.70Q94.72-60.96 94.79-61.03Q94.86-61.09 94.99-61.22L94.99-61.22Q95.12-61.35 95.05-61.55Q94.99-61.75 94.99-61.88L94.99-61.88Q95.25-62.27 95.51-62.73Q95.78-63.19 95.91-63.33L95.91-63.33L95.91-63.59Q95.91-63.72 95.97-63.78Q96.04-63.85 96.04-63.98L96.04-63.98Q96.04-64.24 96.17-64.51L96.17-64.51Q96.17-64.77 96.30-64.77Q96.43-64.77 96.43-64.90L96.43-64.90Q96.83-65.82 96.83-66.74Q96.83-67.66 97.09-69.11L97.09-69.11Q97.22-70.55 97.35-71.93Q97.48-73.31 96.70-73.97L96.70-73.97L96.70-74.36L96.56-74.36L96.43-74.36Q96.30-74.49 96.43-74.69Q96.56-74.89 96.43-75.02L96.43-75.02Q96.43-75.02 96.17-75.02L96.17-75.02Q96.04-75.15 96.17-75.28Q96.30-75.41 96.17-75.67L96.17-75.67L96.04-75.67Q95.91-75.67 95.91-75.67L95.91-75.67Q95.91-75.67 95.91-76.20L95.91-76.20Q95.78-76.46 95.45-76.59Q95.12-76.73 94.99-76.86L94.99-76.86Q95.64-73.44 95.38-70.42ZM86.05-55.31L86.05-55.31Q85.79-54.92 85.53-54.59Q85.27-54.26 85.00-53.87L85.00-53.87Q84.48-53.08 83.75-52.55Q83.03-52.03 82.38-51.37L82.38-51.37Q82.11-51.11 82.11-50.84Q82.11-50.58 81.85-50.45L81.85-50.45Q81.72-50.19 81.39-49.99Q81.06-49.79 80.80-49.53L80.80-49.53Q80.01-48.74 79.29-47.95Q78.57-47.17 77.91-46.51L77.91-46.51Q77.65-46.25 77.38-46.11Q77.12-45.98 76.86-45.72L76.86-45.72Q76.33-45.33 75.87-44.80Q75.41-44.28 75.02-43.88L75.02-43.88Q74.36-43.49 74.36-43.36L74.36-43.36Q74.36-43.36 73.70-43.36L73.70-43.36Q73.44-43.09 73.31-42.76Q73.18-42.44 72.92-42.30L72.92-42.30Q72.65-42.04 72.39-41.98Q72.13-41.91 71.86-41.65L71.86-41.65Q71.60-41.52 71.60-41.32Q71.60-41.12 71.47-40.99L71.47-40.99Q71.34-40.86 71.14-40.92Q70.95-40.99 70.68-40.73L70.68-40.73Q70.42-40.60 70.22-40.33Q70.03-40.07 69.76-39.81L69.76-39.81Q69.63-39.81 69.50-39.74Q69.37-39.68 69.24-39.68L69.24-39.68Q68.97-39.55 68.71-39.02L68.71-39.02Q68.58-38.89 68.05-38.76L68.05-38.76Q68.05-38.63 67.66-38.23L67.66-38.23Q67.40-37.97 67.00-37.97L67.00-37.97Q66.48-37.44 66.22-37.44L66.22-37.44Q65.95-37.44 66.02-37.38Q66.08-37.31 65.95-37.18L65.95-37.18Q65.69-36.92 65.36-36.85Q65.03-36.79 64.77-36.66L64.77-36.66Q64.64-36.39 64.24-36.00L64.24-36.00Q63.59-35.60 62.93-35.28Q62.27-34.95 61.75-34.55L61.75-34.55L61.75-34.29Q61.75-34.29 61.49-34.29L61.49-34.29L61.22-34.29L61.22-34.03Q61.09-33.90 60.89-33.96Q60.70-34.03 60.57-34.03L60.57-34.03Q60.43-34.03 60.43-33.76Q60.43-33.50 60.30-33.37L60.30-33.37Q60.04-33.24 59.84-33.24Q59.65-33.24 59.52-33.11L59.52-33.11Q56.49-31.40 53.34-29.95Q50.19-28.51 46.90-27.06L46.90-27.06Q43.49-25.62 40.01-24.37Q36.52-23.12 33.11-21.94L33.11-21.94Q32.45-21.68 31.47-21.41Q30.48-21.15 30.22-20.89L30.22-20.89Q30.22-20.76 29.95-20.82Q29.69-20.89 29.56-20.89L29.56-20.89Q29.30-20.63 28.51-20.43Q27.72-20.23 27.46-19.97L27.46-19.97L26.93-19.97Q26.28-19.71 25.42-19.51Q24.57-19.31 24.31-19.05L24.31-19.05L23.39-19.05Q23.12-19.05 23.19-18.92Q23.25-18.79 23.12-18.79L23.12-18.79Q22.86-18.66 22.47-18.66Q22.07-18.66 21.55-18.52L21.55-18.52Q20.76-18.26 19.58-18.13Q18.39-18.00 18.13-17.74L18.13-17.74L17.60-17.74Q16.95-17.74 16.75-17.67Q16.55-17.60 16.29-17.47L16.29-17.47Q14.98-17.21 13.99-17.21Q13.01-17.21 12.74-15.77L12.74-15.77Q13.01-15.37 13.40-15.57Q13.79-15.77 13.93-15.77L13.93-15.77Q25.09-17.60 33.90-20.50L33.90-20.50Q34.42-20.76 34.88-20.96Q35.34-21.15 35.60-21.15L35.60-21.15Q35.87-21.15 35.87-21.22Q35.87-21.28 36.00-21.41L36.00-21.41Q36.66-21.68 37.05-21.68Q37.44-21.68 38.10-21.94L38.10-21.94L38.10-22.20Q38.10-22.20 38.63-22.20L38.63-22.20Q39.68-22.60 40.60-22.99Q41.52-23.39 42.44-23.65L42.44-23.65Q43.75-24.17 45.00-24.70Q46.25-25.22 47.69-25.88L47.69-25.88Q48.22-26.14 48.61-26.14L48.61-26.14Q48.87-26.14 49.33-26.47Q49.79-26.80 50.06-27.06L50.06-27.06Q50.84-27.33 51.76-27.66Q52.68-27.98 52.95-28.51L52.95-28.51Q53.47-28.51 53.47-28.51L53.47-28.51L53.47-28.64Q53.60-28.77 53.80-28.71Q54.00-28.64 54.13-28.64L54.13-28.64L54.13-29.03L54.39-29.03Q54.79-29.03 54.79-29.03L54.79-29.03Q54.79-29.17 54.92-29.30L54.92-29.30Q55.05-29.43 55.11-29.43Q55.18-29.43 55.31-29.56L55.31-29.56Q55.57-29.82 55.90-29.82Q56.23-29.82 56.62-30.09L56.62-30.09Q56.89-30.35 57.15-30.35L57.15-30.35Q57.41-30.87 58.07-30.87L58.07-30.87Q58.46-30.87 58.66-31.14Q58.86-31.40 59.12-31.40L59.12-31.40Q59.38-31.53 59.78-31.86Q60.17-32.19 60.30-32.32L60.30-32.32L60.83-32.32Q61.09-32.32 61.16-32.58Q61.22-32.84 61.49-32.84L61.49-32.84Q61.75-32.98 61.81-33.04Q61.88-33.11 62.14-33.11L62.14-33.11Q62.41-33.37 62.73-33.70Q63.06-34.03 63.33-34.03L63.33-34.03Q63.59-34.03 63.78-34.22Q63.98-34.42 64.24-34.55L64.24-34.55Q64.38-34.68 64.57-34.95Q64.77-35.21 65.03-35.21L65.03-35.21Q65.30-35.21 65.23-35.28Q65.16-35.34 65.30-35.47L65.30-35.47Q65.95-35.47 66.22-35.74L66.22-35.74Q66.35-35.87 66.35-36.06Q66.35-36.26 66.48-36.26L66.48-36.26Q66.74-36.52 66.87-36.46Q67.00-36.39 67.27-36.66L67.27-36.66Q67.79-36.79 68.05-37.44L68.05-37.44Q68.58-37.44 68.71-37.57L68.71-37.57Q68.84-37.71 68.91-37.84Q68.97-37.97 69.24-38.23L69.24-38.23Q69.89-38.63 70.35-39.02Q70.81-39.41 71.47-39.81L71.47-39.81Q74.10-41.78 75.67-43.36L75.67-43.36Q76.20-43.88 76.59-44.01L76.59-44.01L81.46-48.87Q81.72-49.40 82.24-49.86Q82.77-50.32 83.29-50.71L83.29-50.71Q83.43-51.11 83.75-51.44Q84.08-51.76 84.08-52.03L84.08-52.03Q84.08-52.29 84.61-52.75Q85.13-53.21 85.27-53.34L85.27-53.34Q85.40-53.47 85.53-53.67Q85.66-53.87 85.92-53.87L85.92-53.87Q85.92-54.13 85.99-54.19Q86.05-54.26 86.05-54.52L86.05-54.52Q86.19-54.65 86.38-54.79Q86.58-54.92 86.71-55.05L86.71-55.05Q87.24-55.71 87.70-56.36Q88.16-57.02 88.42-57.28L88.42-57.28L88.42-57.54Q88.42-57.81 88.42-57.81L88.42-57.81Q88.42-58.07 88.55-58.14Q88.68-58.20 88.81-58.46L88.81-58.46Q88.94-58.60 89.14-58.92Q89.34-59.25 89.08-59.52L89.08-59.52Q88.55-58.33 87.76-57.41Q86.97-56.49 86.05-55.31ZM20.76-89.60L20.76-89.60Q21.28-89.21 20.69-88.88Q20.10-88.55 19.84-88.29L19.84-88.29Q19.58-87.89 19.58-87.50Q19.58-87.10 19.31-86.84L19.31-86.84Q18.92-86.97 19.05-87.24Q19.18-87.50 19.31-87.76L19.31-87.76Q19.58-88.16 20.04-88.68Q20.50-89.21 20.76-89.60Z" transform="translate(0 525.14) " fill="rgb(255, 255, 255)" stroke="rgb(255, 255, 255)" stroke-width="0.219" data-glyph-w="109.43954" data-glyph-h="129.67206" data-glyph-ascender="118.11062" data-glyph-descender="-11.56144"></path></g></svg></g>
        </g>
  </svg>